<svg xmlns="http://www.w3.org/2000/svg" xmlns:xlink="http://www.w3.org/1999/xlink" viewBox="0 0 109.65 84.83"><defs><style>.cls-1{fill:none;}.cls-2{clip-path:url(#clip-path);}.cls-3{fill:url(#linear-gradient);}.cls-4{opacity:0.1;}.cls-5{clip-path:url(#clip-path-2);}.cls-6{fill:#fff;}.cls-11,.cls-18,.cls-21,.cls-6{fill-rule:evenodd;}.cls-7{clip-path:url(#clip-path-3);}.cls-8{fill:url(#linear-gradient-2);}.cls-9{opacity:0.2;}.cls-10{clip-path:url(#clip-path-4);}.cls-11{fill:#83ccf1;}.cls-12{clip-path:url(#clip-path-5);}.cls-13{fill:url(#linear-gradient-3);}.cls-14{clip-path:url(#clip-path-6);}.cls-15{fill:url(#linear-gradient-4);}.cls-16{opacity:0.4;}.cls-17{clip-path:url(#clip-path-7);}.cls-18{fill:#445da9;}.cls-19{opacity:0.3;}.cls-20{clip-path:url(#clip-path-8);}.cls-21{fill:#86abda;}.cls-22{clip-path:url(#clip-path-9);}.cls-23{fill:url(#linear-gradient-5);}.cls-24{clip-path:url(#clip-path-10);}.cls-25{fill:url(#linear-gradient-6);}.cls-26{clip-path:url(#clip-path-11);}.cls-27{fill:url(#linear-gradient-7);}.cls-28{clip-path:url(#clip-path-12);}.cls-29{fill:url(#linear-gradient-8);}.cls-30{clip-path:url(#clip-path-13);}.cls-31{fill:url(#linear-gradient-9);}.cls-32{clip-path:url(#clip-path-14);}.cls-33{fill:url(#linear-gradient-10);}</style><clipPath id="clip-path"><path class="cls-1" d="M48.68,34.35a36.43,36.43,0,0,1-13.11,20.5l25.91-16.1a2,2,0,0,0,.63-2.68L46,10.16a36.36,36.36,0,0,1,2.67,24.19"/></clipPath><linearGradient id="linear-gradient" x1="525.11" y1="157.08" x2="526.11" y2="157.08" gradientTransform="matrix(0, -27.57, 27.57, 0, -4280.85, 14528.48)" gradientUnits="userSpaceOnUse"><stop offset="0" stop-color="#f1662a"/><stop offset="0.24" stop-color="#f16a2d"/><stop offset="0.48" stop-color="#f17736"/><stop offset="0.74" stop-color="#f28b44"/><stop offset="0.99" stop-color="#f3a858"/><stop offset="1" stop-color="#f3aa59"/></linearGradient><clipPath id="clip-path-2"><rect class="cls-1" x="48.31" y="24.05" width="12.59" height="21.6"/></clipPath><clipPath id="clip-path-3"><path class="cls-1" d="M24.73,49.6l3.1,5a44.59,44.59,0,0,0,10.75-15.1,7.5,7.5,0,0,1-5.14-6.71L24.73,30.4ZM10.61,26.87,24.73,49.6V30.4L10.44,26.52a1.62,1.62,0,0,0,.17.35m.62-2.68a2,2,0,0,0-.35.28l13.85,2.66V15.8Zm13.5-8.39V27.13L34.26,29a7.47,7.47,0,0,1,7.67-4A44.52,44.52,0,0,0,39,7Z"/></clipPath><linearGradient id="linear-gradient-2" x1="521.34" y1="158.43" x2="522.34" y2="158.43" gradientTransform="translate(-5082.68 16845.09) rotate(-90) scale(32.25)" gradientUnits="userSpaceOnUse"><stop offset="0" stop-color="#808184"/><stop offset="0.46" stop-color="#848588"/><stop offset="0.93" stop-color="#8f9194"/><stop offset="1" stop-color="#929497"/></linearGradient><clipPath id="clip-path-4"><rect class="cls-1" x="30.93" y="12.19" width="9.77" height="38.08"/></clipPath><clipPath id="clip-path-5"><path class="cls-1" d="M36,31.19a5.78,5.78,0,0,0,3.64,6.73c.21.08.44.14.66.2l.26.05c1.11-1.19,2.23-3.08.87-5.11-1.81-2.7.75-5.19,1.85-6.08l-.36-.09a5.92,5.92,0,0,0-1.31-.15A5.76,5.76,0,0,0,36,31.19"/></clipPath><linearGradient id="linear-gradient-3" x1="601.43" y1="152.21" x2="602.43" y2="152.21" gradientTransform="translate(4512.35 1163.48) rotate(180) scale(7.43)" gradientUnits="userSpaceOnUse"><stop offset="0" stop-color="#355aa8"/><stop offset="0.25" stop-color="#385eab"/><stop offset="0.51" stop-color="#3f6bb3"/><stop offset="0.77" stop-color="#4c7fc1"/><stop offset="1" stop-color="#5c98d1"/></linearGradient><clipPath id="clip-path-6"><path class="cls-1" d="M43.28,27c-.83.67-2.49,2.25-2.48,4.15a3.37,3.37,0,0,0,.63,1.93,3.37,3.37,0,0,1-.63-1.93,3.37,3.37,0,0,0,.63,1.93c1.36,2,.24,3.92-.87,5.11a5.77,5.77,0,0,0,3-11.09l-.3-.1h0M40.8,31.13c0-1.9,1.65-3.48,2.48-4.15-.83.67-2.49,2.25-2.48,4.15"/></clipPath><linearGradient id="linear-gradient-4" x1="609.85" y1="124.01" x2="610.85" y2="124.01" gradientTransform="translate(-757.33 3977.87) rotate(-90) scale(6.46)" xlink:href="#linear-gradient-3"/><clipPath id="clip-path-7"><rect class="cls-1" x="40.89" y="28.98" width="6.25" height="8.16"/></clipPath><clipPath id="clip-path-8"><rect class="cls-1" x="36.21" y="29.77" width="2.35" height="3.48"/></clipPath><clipPath id="clip-path-9"><path class="cls-1" d="M54.36,54.94q-2.41,0-7.26,2.27a23.39,23.39,0,0,0-5.81,3.69q-4.77,4.27-4.76,7.29v.33a5.94,5.94,0,0,0,.22,1.57q1.66,4.75,9.09,4.75a30.63,30.63,0,0,0,9.62-1.59A22,22,0,0,0,61,70.46q3.27-2.07,3.27-3.6a3,3,0,0,0-.42-1.4l.83,0h.5c.86-.13,1.3-.55,1.3-1.25v-.23c-.23-.74-.63-1.1-1.22-1.1l-.54,0h-.12l-2.24.05-.53-.05-2-.26h0c-.88.09-1.33.52-1.33,1.28v0a1.44,1.44,0,0,0,.77,1.17c1.62.81,2.44,1.37,2.44,1.67,0,.46-.91,1.31-2.71,2.55a19.54,19.54,0,0,1-3.72,1.79,29.17,29.17,0,0,1-8.47,1.47H46a10.46,10.46,0,0,1-4.82-1.1c-1.61-1-2.41-2.09-2.41-3.22q0-2.05,2.44-4.71A27.77,27.77,0,0,1,45.77,60a17,17,0,0,1,6.6-2.43,3.55,3.55,0,0,0-.61,1c.14.89.58,1.33,1.3,1.33h.16l.34-.08c1.79-1.64,2.69-2.91,2.69-3.79l0-.2c-.13-.57-.58-.86-1.36-.86Z"/></clipPath><linearGradient id="linear-gradient-5" x1="512.5" y1="143.24" x2="513.5" y2="143.24" gradientTransform="matrix(-28.08, 0, 0, 28.08, 14478.2, -3957.04)" gradientUnits="userSpaceOnUse"><stop offset="0" stop-color="#808184"/><stop offset="0.3" stop-color="#7c7d80"/><stop offset="0.61" stop-color="#6f7174"/><stop offset="0.93" stop-color="#5b5d5f"/><stop offset="1" stop-color="#55585a"/></linearGradient><clipPath id="clip-path-10"><path class="cls-1" d="M69.45,56.22a12.93,12.93,0,0,0-1.56,3.57c-.67,2-1.63,3-2.89,3a1.39,1.39,0,0,0-1.29,1.38c-.06.79.38,1.26,1.33,1.41a4,4,0,0,0,1.86-.48,4.55,4.55,0,0,0,1.46-1.52c.18,1.31,1.15,2,2.92,2a1.28,1.28,0,0,0,1.33-1.17v-.29c-.18-.83-.61-1.22-1.28-1.16q-1.11-.15-1.14-1a3.94,3.94,0,0,1,.11-1.28c.1-.32.36-1,.79-2.22.63-1.28.5-2.15-.39-2.59a1.12,1.12,0,0,0-.35-.06,1.25,1.25,0,0,0-.9.44m1-5.74c-.85.25-1.27.72-1.27,1.41s.37.84,1.12.84h.1c3.67-.24,5.54-.54,5.61-.92l.3-1.08a.64.64,0,0,0-.61-.45Z"/></clipPath><linearGradient id="linear-gradient-6" x1="512.5" y1="143.24" x2="513.5" y2="143.24" gradientTransform="matrix(-28.08, 0, 0, 28.08, 14483.55, -3963.81)" xlink:href="#linear-gradient-5"/><clipPath id="clip-path-11"><path class="cls-1" d="M70.77,68.24c-1,.23-1.58.7-1.58,1.41,0,.55.47.83,1.4.83h.11q6.57-.72,6.7-1.27l.37-1.09a.82.82,0,0,0-.76-.44Zm7.16-12.39c-.58.36-1,1.26-1.18,2.68a5.24,5.24,0,0,1-1.56,3.25,6,6,0,0,1-4,1.17A1.29,1.29,0,0,0,70,64.24c0,.74.37,1.16,1.27,1.26a6.74,6.74,0,0,0,3.87-.76,9,9,0,0,0,2.76-2.22,10.25,10.25,0,0,0,1.63-4.2c.41-1.5,0-2.36-1.1-2.58-.32,0-.48,0-.48.11"/></clipPath><linearGradient id="linear-gradient-7" x1="512.5" y1="143.24" x2="513.5" y2="143.24" gradientTransform="matrix(-28.08, 0, 0, 28.08, 14491.35, -3958.75)" xlink:href="#linear-gradient-5"/><clipPath id="clip-path-12"><path class="cls-1" d="M84.73,61.66a7.63,7.63,0,0,1,1.83-2.4l-.3,1.29a5.81,5.81,0,0,1-1.14,2.22c-.51-.09-.64-.47-.39-1.11m.12-4.48q-3,3.18-2.95,5.22a2.55,2.55,0,0,0,1.86,2.78,18.76,18.76,0,0,1-3,3.51q-1.42,1.35-2.64,2.4a2.18,2.18,0,0,0-1.22,1.6v.06a.88.88,0,0,0,.07.53,1.22,1.22,0,0,0,1,.84h.24a15,15,0,0,0,3.64-2.8,27.51,27.51,0,0,0,3.84-4.07c.41-.6.79-1.17,1.13-1.73h.17a6.51,6.51,0,0,0,2.39-.15,1.18,1.18,0,0,0,.69-.76,1.36,1.36,0,0,0-.13-1.1,1.27,1.27,0,0,0-1.09-.64c-.21,0-.41,0-.59,0a12,12,0,0,0,1.07-3.74,5.13,5.13,0,0,0,0-1.1c-.29-1.16-.89-1.77-1.82-1.86h-.22a3.72,3.72,0,0,0-2.36,1"/></clipPath><linearGradient id="linear-gradient-8" x1="512.5" y1="143.22" x2="513.5" y2="143.22" gradientTransform="matrix(-28.08, 0, 0, 28.08, 14498.99, -3955.95)" xlink:href="#linear-gradient-5"/><clipPath id="clip-path-13"><path class="cls-1" d="M92.62,62.66a1.94,1.94,0,0,1,.29-.88,4.67,4.67,0,0,1,4-2.63,2,2,0,0,1,1.32.35c0,.2-.3.62-.88,1.29Q95.07,63,93.21,63c-.39,0-.59-.12-.59-.37m8.12-3.11a.77.77,0,0,0-.11-.4v0l1,.12c1.62.25,2.42.49,2.42.7,0,.51-.59,1.12-1.79,1.83a10.77,10.77,0,0,1-3,.72,5.25,5.25,0,0,0,1.43-2.92m-6-2.45a7.34,7.34,0,0,0-2.5,1.57c-1.37,1.35-2,2.6-2,3.77a.84.84,0,0,0,.16.48c-.31,0-.8,0-1.46.06-.92.16-1.34.59-1.26,1.27a1.4,1.4,0,0,0,1.29,1.26A20.79,20.79,0,0,0,94,65.14a8.59,8.59,0,0,0,1.75.12A21,21,0,0,0,99.09,65a11.5,11.5,0,0,0,4.73-1.28c1.82-1.1,2.74-2.36,2.74-3.77,0-1.63-1.31-2.67-3.91-3.11a66.2,66.2,0,0,0-6.89-.54,1.11,1.11,0,0,0-1,.8"/></clipPath><linearGradient id="linear-gradient-9" x1="512.5" y1="143.24" x2="513.5" y2="143.24" gradientTransform="matrix(-28.08, 0, 0, 28.08, 14503.8, -3960.85)" xlink:href="#linear-gradient-5"/><clipPath id="clip-path-14"><path class="cls-1" d="M19.25,80.13c-1.16.69-1.78,1.21-1.86,1.57l-.07.3a1.14,1.14,0,0,0,.91,1.14l.64-.07c3.19-1.85,36-4.62,39-5.08a46.51,46.51,0,0,1,6-.67h2.73c.78,0,1.2-.17,1.28-.52l.06-.26c0-.7-.25-1.1-.74-1.21a20.75,20.75,0,0,0-2.38-.1c-.18,0-.43,0-.73,0-6.4,0-38.08,3.43-44.77,4.91"/></clipPath><linearGradient id="linear-gradient-10" x1="484.12" y1="164.94" x2="485.12" y2="164.94" gradientTransform="matrix(50.54, 0, 0, -50.54, -24450.66, 8415.35)" xlink:href="#linear-gradient"/></defs><title>logo</title><g id="Layer_2" data-name="Layer 2"><g id="Layer_1-2" data-name="Layer 1"><g class="cls-2"><rect class="cls-3" x="24.3" y="14.27" width="49.64" height="36.46" transform="translate(6.4 73.05) rotate(-77)"/></g><g class="cls-4"><g class="cls-5"><path class="cls-6" d="M48.31,45.65,60,38.4a2,2,0,0,0,.63-2.68L53.36,24.05l4.47,10.51A3.39,3.39,0,0,1,57,38.21Z"/></g></g><g class="cls-7"><rect class="cls-8" x="-0.46" y="9.95" width="53.55" height="41.65" transform="translate(-9.59 49.49) rotate(-77)"/></g><g class="cls-9"><g class="cls-10"><path class="cls-6" d="M40.65,23.7a8.68,8.68,0,0,0-1.84.26,93.88,93.88,0,0,0,1-11.77,49.84,49.84,0,0,1,.82,11.51M30.93,50.28a49.62,49.62,0,0,0,6-10.22,8.46,8.46,0,0,1-1.33-.87L35.31,39a93,93,0,0,1-4.38,11.24"/></g></g><path class="cls-11" d="M47.5,33.88a6,6,0,1,0-7.26,4.51,6,6,0,0,0,7.26-4.51"/><g class="cls-12"><rect class="cls-13" x="35.33" y="26.74" width="7.95" height="11.43"/></g><g class="cls-14"><rect class="cls-15" x="37.68" y="27.96" width="13.09" height="9.79" transform="translate(2.27 68.56) rotate(-77)"/></g><g class="cls-16"><g class="cls-17"><path class="cls-18" d="M47,33.76c.52-2.22-.39-4.33-2-4.72s-3.4,1.11-3.92,3.33.4,4.33,2,4.71S46.47,36,47,33.76"/></g></g><g class="cls-19"><g class="cls-20"><path class="cls-21" d="M36.28,31.26c.22-1,.9-1.61,1.51-1.47s.92,1,.7,2-.9,1.61-1.51,1.47-.92-1-.7-2"/></g></g><g class="cls-22"><rect class="cls-23" x="36.87" y="47.34" width="29.28" height="35.09" transform="translate(-27.49 89.84) rotate(-69.09)"/></g><g class="cls-24"><rect class="cls-25" x="60.57" y="49.3" width="18.78" height="17.24" transform="translate(-9.12 102.59) rotate(-69.09)"/></g><g class="cls-26"><rect class="cls-27" x="65.76" y="55.47" width="17.6" height="15.28" transform="translate(-11.01 110.23) rotate(-69.09)"/></g><g class="cls-28"><rect class="cls-29" x="72.72" y="55.72" width="21.55" height="18.81" transform="translate(-7.15 119.88) rotate(-69.09)"/></g><g class="cls-30"><rect class="cls-31" x="89.33" y="50.41" width="15.45" height="21.06" transform="translate(5.49 129.86) rotate(-69.09)"/></g><g class="cls-32"><rect class="cls-33" x="17.32" y="75.21" width="50.54" height="7.94"/></g></g></g></svg>