<?xml version="1.0" standalone="no"?>
<!DOCTYPE svg PUBLIC "-//W3C//DTD SVG 20010904//EN"
 "http://www.w3.org/TR/2001/REC-SVG-20010904/DTD/svg10.dtd">
<svg version="1.0" xmlns="http://www.w3.org/2000/svg"
 width="512.000000pt" height="512.000000pt" viewBox="0 0 512.000000 512.000000"
 preserveAspectRatio="xMidYMid meet">

<g transform="translate(0.000000,512.000000) scale(0.100000,-0.100000)"
fill="#000000" stroke="none">
<path fill="#fff" d="M2900 4649 c-509 -36 -982 -328 -1259 -777 -264 -427 -308 -967 -120
-1447 21 -55 59 -134 83 -175 l43 -75 -552 -555 c-460 -462 -556 -564 -579
-611 -155 -323 170 -651 493 -497 34 16 191 166 603 576 l556 555 134 -66 c73
-36 176 -79 228 -95 594 -187 1215 -37 1650 398 635 634 637 1657 6 2292 -341
344 -795 512 -1286 477z m325 -475 c98 -17 241 -62 320 -101 219 -109 420
-313 533 -538 125 -252 148 -604 55 -874 -162 -475 -599 -791 -1098 -792 -135
0 -220 12 -350 52 -180 56 -338 152 -475 289 -130 130 -219 273 -278 445 -216
632 151 1320 798 1496 150 41 343 50 495 23z"/>
<path fill="#fff" d="M3095 3894 c-71 -37 -105 -91 -105 -168 0 -100 47 -155 165 -191 187
-57 333 -205 389 -393 8 -29 24 -66 36 -82 77 -108 250 -97 310 20 110 216
-262 712 -609 814 -69 20 -147 20 -186 0z"/>
</g>
</svg>
